<?xml version="1.0" encoding="utf-8"?>
<!-- Generator: Adobe Illustrator 25.2.3, SVG Export Plug-In . SVG Version: 6.00 Build 0)  -->
<svg version="1.1" id="Ebene_1" xmlns="http://www.w3.org/2000/svg" xmlns:xlink="http://www.w3.org/1999/xlink" x="0px" y="0px"
	 viewBox="0 0 595.28 841.89" style="enable-background:new 0 0 595.28 841.89;" xml:space="preserve">
<style type="text/css">
	.st0{clip-path:url(#SVGID_2_);}
</style>
<g>
	<defs>
		<rect id="SVGID_1_" x="157.76" y="266.27" width="280.27" height="309.83"/>
	</defs>
	<clipPath id="SVGID_2_">
		<use xlink:href="#SVGID_1_"  style="overflow:visible;"/>
	</clipPath>
	<path class="st0" d="M327.08,420c8.04,14.25,12.82,28.14,7.13,42.57c-7.34,18.61-28.05,21.89-31.14,22.28l4.84-13.07
		c2.03,1.38,4.48,2.18,7.13,2.18c7.02,0,12.71-5.69,12.71-12.71c0-6.53-4.93-11.91-11.27-12.63L327.08,420z M408.9,266.27
		c0,0-9.31,4.82-30.5,15.09l0.03-0.07h-79.73l-29.41,93.9l-28.7-93.9h-82.84L269.3,576.1c80.08-10.49,119.62-26.5,142.87-72.42
		c23.24-45.92-1.9-87.16-10.06-108.43c-13.61-35.43,35.93-52.8,35.93-52.8L408.9,266.27z"/>
</g>
</svg>
